<svg id="圖層_1" data-name="圖層 1" xmlns="http://www.w3.org/2000/svg" viewBox="0 0 250 258.62"><defs><style>.cls-1,.cls-3,.cls-4{fill:#231815;}.cls-2{fill:#fff;}.cls-3{stroke:#231815;stroke-miterlimit:10;stroke-width:3px;}.cls-4{font-size:21px;font-family:Alef-Regular, Alef;}</style></defs><title>TWOFISHLOGO-web</title><path class="cls-1" d="M166.51,267.9V143.3a37.28,37.28,0,0,0,6.75-4.34c2.82-2.47,4.63-7,4.63-7H291.51v136Z" transform="translate(-166.51 -131.88)"/><path class="cls-1" d="M416.51,270.28V143.46a42.69,42.69,0,0,1-7.6-4.43c-3.18-2.51-5.22-7.15-5.22-7.15H275.62v138.4Z" transform="translate(-166.51 -131.88)"/><path class="cls-1" d="M416.51,261.45V379.7a38.24,38.24,0,0,0-6.75,4.12c-2.81,2.35-4.62,6.68-4.62,6.68H291.51v-129Z" transform="translate(-166.51 -131.88)"/><path class="cls-1" d="M166.51,261.45V379.7a44,44,0,0,1,7.56,4.12,20.38,20.38,0,0,1,5.18,6.68H306.51v-129Z" transform="translate(-166.51 -131.88)"/><path class="cls-2" d="M173.42,266.45V148.73a35.55,35.55,0,0,0,6.38-4.1c2.66-2.34,4.37-6.65,4.37-6.65H291.51V266.45Z" transform="translate(-166.51 -131.88)"/><path class="cls-2" d="M409.6,268.69V148.88a40.27,40.27,0,0,1-7.18-4.18c-3-2.37-4.93-6.76-4.93-6.76h-121V268.69Z" transform="translate(-166.51 -131.88)"/><path class="cls-2" d="M409.6,260.35V372.06a35.56,35.56,0,0,0-6.37,3.9,19.13,19.13,0,0,0-4.37,6.3H291.51V260.35Z" transform="translate(-166.51 -131.88)"/><path class="cls-2" d="M173.42,260.35V372.06a41.06,41.06,0,0,1,7.15,3.9,19.22,19.22,0,0,1,4.89,6.3H305.68V260.35Z" transform="translate(-166.51 -131.88)"/><path class="cls-1" d="M175.62,266.33V150.8a34.68,34.68,0,0,0,6.26-4c2.6-2.29,4.28-6.52,4.28-6.52H291.51V266.33Z" transform="translate(-166.51 -131.88)"/><path class="cls-1" d="M407.41,268.53V150.94a39.41,39.41,0,0,1-7.05-4.1,20.06,20.06,0,0,1-4.84-6.63H276.77V268.53Z" transform="translate(-166.51 -131.88)"/><path class="cls-1" d="M407.41,260.34V370a35.58,35.58,0,0,0-6.26,3.82,18.91,18.91,0,0,0-4.29,6.19H291.51V260.34Z" transform="translate(-166.51 -131.88)"/><path class="cls-1" d="M175.62,260.34V370a41,41,0,0,1,7,3.82,18.9,18.9,0,0,1,4.8,6.19h118V260.34Z" transform="translate(-166.51 -131.88)"/><path class="cls-2" d="M178.41,265.94V153.2a34.23,34.23,0,0,0,6.11-3.93,19.52,19.52,0,0,0,4.19-6.37h102.8v123Z" transform="translate(-166.51 -131.88)"/><path class="cls-2" d="M404.62,268.09V153.34a39.08,39.08,0,0,1-6.89-4,19.75,19.75,0,0,1-4.72-6.48H277.13V268.09Z" transform="translate(-166.51 -131.88)"/><path class="cls-2" d="M404.62,260.1v107a34.45,34.45,0,0,0-6.11,3.73,18.46,18.46,0,0,0-4.19,6H291.51V260.1Z" transform="translate(-166.51 -131.88)"/><path class="cls-2" d="M178.41,260.1v107a40.05,40.05,0,0,1,6.84,3.73,18.52,18.52,0,0,1,4.69,6H305.08V260.1Z" transform="translate(-166.51 -131.88)"/><path class="cls-1" d="M211.4,295.37H217v7.31h1.69V286.93h5.06v15.75h5.06v2.82h-5.06v18.28a18.23,18.23,0,0,0,7.59-4.78l.28.28q-2,4.79-7.87,9.28v27h-5.06V330.81a30.77,30.77,0,0,1-9.57,2.81c1.5-3,1.55-4.66.42-6.53a27.62,27.62,0,0,0,9.15-1.91V305.5H217c-.56,3.19-2.31,7.16-5.87,13l-2.18-.28C211.41,313.51,211.5,306.68,211.4,295.37Zm15,18a40.14,40.14,0,0,0,7.48-24.18v-2.25h6.19a39,39,0,0,1-2.81,11.82h12.94v-2.56l5.06.13v50.24c-.72,5-10.31,8.25-11.25,8.44l-3.22,1.15-.72-1.15a3,3,0,0,1,1.13-.57c6.37-2.62,8.59-4.78,9-7.87v-45H236.15l-1.68,2.81h3.37v16.31c.19,8.44-2.76,17-9.7,26.95l-2.23-.11c4.31-8.2,7.43-15.59,7.43-22.9v-18a49.8,49.8,0,0,1-4.62,6.79Zm5.71,37.56c6.75-9.75,9.65-21.24,9.65-35.86V304.37h4.5V319c.18,10.5-3.28,20.27-11.34,31.52Z" transform="translate(-166.51 -131.88)"/><path class="cls-1" d="M335.8,293.41a41.13,41.13,0,0,0,10.69-5.91l1.14-.28c1.9.77,2.13,1.79,4.76,4.22v-2h5.35V294a42.77,42.77,0,0,0,10.12-5.06,4.45,4.45,0,0,1,2.12-.18c1.12.56,1.82,1.59,4.07,3.84v.28q-2.54.56-16.31,1.69V308L374,308v2.81l-5.33.05v45.56h-5.34V310.85h-5.62V330c.56,10.13-4.25,18.94-13.44,26.44l-1.37-.37c7.13-6.75,10-14.82,9.46-24.94V292q-3.66.28-16.59,2v13.5h6.75l.05-3.5H348l-.09,32.16-5.34-.06,0-3.85H335.8v3.38c-.38,5.81-3.5,12.43-8.38,20.12l-1.18-.32c2.31-5.69,4.4-12.3,4.21-20.36l0-45.57h5.34Zm0,36h6.75V310.29H335.8Z" transform="translate(-166.51 -131.88)"/><path class="cls-1" d="M281.74,223.27a17.1,17.1,0,0,1-.46,4H284v-5.59h4.61v5.59H296v1.56h-7.37v4.66h8.24v1.55h-8.24v5h2.77V238.5H296v12.42c0,1.55-2.58,3.27-3.45,3.24-.69,0-1.08-.49-1.85-.29l-2.07.47v5.28H284v-18h-2.76v13.56h-4.61V238.5h4.61v1.55H284v-5h-9.15v-1.55H284v-4.66h-3.46a21.24,21.24,0,0,1-3.73,3.95l-1.11-.23q1.85-3.26,1.39-9.32Zm6.91,30.29c2-.51,2.92-1.4,2.77-2.64V241.6h-2.77Zm10.14,6.37-.46-.62q7.6-2,7.83-4.19v-33.4h4.61v33.4c0,1.65-6.11,3.85-7.55,4.23A34.53,34.53,0,0,1,298.79,259.93Zm.46-32.62h4.61v24.23h-4.61Z" transform="translate(-166.51 -131.88)"/><path class="cls-1" d="M274.89,261.41h17.89c-1.14-1.26-1.7-2.23-2.84-3.56l.5-.19a29.81,29.81,0,0,1,5.59,2.12,6.3,6.3,0,0,1-2.39,1.63h17.09l0,1.58H295.8a18.22,18.22,0,0,0,2.85,7.76l7.8-5.95,2.14.6-8.6,6.7c3.56,3,7.44,4.26,11.86,5.12-1.28.94-1.08,4.32-1.08,4.32s-12-3.88-14.67-8.88a18.48,18.48,0,0,1-2.44-9.67h-1.28c-.14.14-.31,0-.45.32a50.32,50.32,0,0,1-3.85,5.16v10.31a27.86,27.86,0,0,0,7.59-2l.64.31c-2.14,2.46-6.25,4.36-13.09,5.29a3.1,3.1,0,0,0-1.62-3.19,14.08,14.08,0,0,0,2.21-.24v-7.13a28.74,28.74,0,0,1-8.55,4.54h-1.7c7-4.06,11.56-8.27,13.69-13.4H274.92Z" transform="translate(-166.51 -131.88)"/><rect class="cls-1" x="193.07" y="53.86" width="5.76" height="35.02"/><rect class="cls-1" x="169.14" y="41.3" width="22.32" height="2.79"/><rect class="cls-1" x="166" y="53.86" width="31.37" height="3.45"/><rect class="cls-1" x="166" y="83.04" width="32.61" height="3.79"/><rect class="cls-1" x="165.33" y="53.86" width="5.39" height="32.96"/><rect class="cls-1" x="166.44" y="68.96" width="30.93" height="2.96"/><rect class="cls-1" x="179.09" y="53.96" width="5.36" height="31.38"/><path class="cls-1" d="M324.77,194.75s8.5-17.67,8.5-28.66l8.23-.13C340.45,181.72,327,194.75,327,194.75Z" transform="translate(-166.51 -131.88)"/><path class="cls-1" d="M336.06,224.88s-2.41,8.91-2.41,15.89h-5.21c.47-6.81,6-15.89,6-15.89Z" transform="translate(-166.51 -131.88)"/><path class="cls-1" d="M343.55,224.88a157.38,157.38,0,0,1,2.94,15.87l-4.79,0c0-5.82.55-5.78.34-15.89Z" transform="translate(-166.51 -131.88)"/><path class="cls-1" d="M352.67,224.88s5.44,9.5,5.77,15.89l-4.8-.09c0-6.75-2.4-15.8-2.4-15.8Z" transform="translate(-166.51 -131.88)"/><path class="cls-1" d="M362.4,224.88s9.84,9.67,10.52,15.89l-6.42-.1c0-6.72-6.21-15.79-6.21-15.79Z" transform="translate(-166.51 -131.88)"/><path class="cls-1" d="M354.52,188.18s3.16-9.4,3.16-16.88l5.6-.08a28.24,28.24,0,0,1-6.9,17Z" transform="translate(-166.51 -131.88)"/><path class="cls-3" d="M212.21,235.51v-2.82h47.25v2.82Zm5.06-57.1H255v3.38H217.27Z" transform="translate(-166.51 -131.88)"/><text x="-166.51" y="-131.88"/><rect class="cls-1" x="98.84" y="156.99" width="14.7" height="1.44"/><rect class="cls-1" x="98.84" y="183.68" width="14.7" height="1.44"/><rect class="cls-1" x="113.3" y="156.99" width="15.41" height="1.44"/><rect class="cls-1" x="113.3" y="183.68" width="15.41" height="1.44"/><rect class="cls-1" x="128.47" y="156.99" width="13.49" height="1.44"/><rect class="cls-1" x="128.47" y="183.68" width="13.49" height="1.44"/><rect class="cls-1" x="141.72" y="156.99" width="11.55" height="1.44"/><rect class="cls-1" x="141.72" y="183.68" width="11.55" height="1.44"/><text class="cls-4" transform="translate(99.84 178.74)">DOLL</text></svg>